<?xml version="1.0" encoding="iso-8859-1"?>
<!-- Generator: Adobe Illustrator 19.0.0, SVG Export Plug-In . SVG Version: 6.00 Build 0)  -->
<svg version="1.1" id="Layer_1" xmlns="http://www.w3.org/2000/svg" xmlns:xlink="http://www.w3.org/1999/xlink" x="0px" y="0px"
	 viewBox="0 0 512 512" style="enable-background:new 0 0 512 512;" xml:space="preserve">
<polygon style="fill:#FFFFFF;" points="67.528,504 67.528,216.496 256,80.768 444.472,216.496 444.472,504 "/>
<path style="fill:#999999;" d="M256,90.624l180.472,129.968V496H75.528V220.592L256,90.624 M256,70.912L59.528,212.4V512h392.944
	V212.4L256,70.912L256,70.912z"/>
<polygon points="256,0 20.024,168.776 20.024,207.176 256,38.4 491.976,207.176 491.976,168.776 "/>
<polygon style="fill:#CCCCCC;" points="162.144,271.544 156.872,265.528 257.72,177.08 355.04,265.576 349.672,271.496 
	257.624,187.808 "/>
<circle cx="257.68" cy="190.096" r="22.992"/>
<circle style="fill:#999999;" cx="257.68" cy="190.096" r="11.984"/>
<rect x="98.944" y="259.256" style="fill:#E21B1B;" width="314.16" height="188.8"/>
<g>
	<path style="fill:#FFFFFF;" d="M145.976,375.56c4.336,2.496,10.848,4.664,17.688,4.664c8.576,0,13.352-4.016,13.352-9.984
		c0-5.528-3.688-8.792-13.024-12.16c-12.048-4.336-19.752-10.744-19.752-21.264c0-11.936,9.984-21.056,25.832-21.056
		c7.92,0,13.784,1.736,17.576,3.688l-3.256,10.744c-2.608-1.408-7.704-3.472-14.544-3.472c-8.464,0-12.16,4.552-12.16,8.792
		c0,5.64,4.232,8.248,14,12.048c12.696,4.776,18.88,11.176,18.88,21.704c0,11.72-8.896,21.92-27.784,21.92
		c-7.704,0-15.736-2.168-19.752-4.552L145.976,375.56z"/>
	<path style="fill:#FFFFFF;" d="M217.296,369.368L211,390.096h-13.784l23.44-73.144h17.04l23.768,73.144h-14.328l-6.624-20.728
		H217.296z M238.24,359.28l-5.752-18.016c-1.408-4.448-2.6-9.44-3.688-13.672h-0.216c-1.088,4.232-2.168,9.336-3.472,13.672
		l-5.64,18.016H238.24z"/>
	<path style="fill:#FFFFFF;" d="M271.688,316.96h13.352v61.96h30.056v11.176h-43.408V316.96z"/>
	<path style="fill:#FFFFFF;" d="M366.112,357.648h-27.56v21.488h30.824v10.96H325.2V316.96h42.536v10.96h-29.184v18.88h27.56
		L366.112,357.648L366.112,357.648z"/>
</g>
<g>
</g>
<g>
</g>
<g>
</g>
<g>
</g>
<g>
</g>
<g>
</g>
<g>
</g>
<g>
</g>
<g>
</g>
<g>
</g>
<g>
</g>
<g>
</g>
<g>
</g>
<g>
</g>
<g>
</g>
</svg>
